<?xml version="1.0" encoding="utf-8"?>
<!-- Generator: Adobe Illustrator 15.0.1, SVG Export Plug-In . SVG Version: 6.00 Build 0)  -->
<!DOCTYPE svg PUBLIC "-//W3C//DTD SVG 1.1//EN" "http://www.w3.org/Graphics/SVG/1.1/DTD/svg11.dtd">
<svg version="1.1" id="图层_1" xmlns="http://www.w3.org/2000/svg" xmlns:xlink="http://www.w3.org/1999/xlink" x="0px" y="0px"
	 width="273.915px" height="273.079px" viewBox="0 0 273.915 273.079" enable-background="new 0 0 273.915 273.079"
	 xml:space="preserve">
<g>
	<path fill-rule="evenodd" clip-rule="evenodd" fill="#82318E" d="M140.994,0.04c-10.484-0.018-35,1.542-62.866,13.208
		C43.357,27.805,19.496,57.375,6.998,92.895c-10.47,29.758-8.801,63.171,2.399,92.468c12.043,31.502,34.208,54.658,63.58,70.59
		c18.462,10.016,41.712,16.805,62.786,16.805c81.597,0,138.152-60.289,138.152-136.376C273.915,58.062,209.545,0.155,140.994,0.04z
		 M253.042,193.38c-8.336,17.755-21.806,33.258-37.354,44.902c-29.278,21.926-69.376,32.914-105.356,24.307
		c-36.471-8.725-71.696-33.555-88.422-67.467C3.986,158.777,2.837,115.92,20.982,79.216c28.084-56.81,94.211-85.332,155.065-65.702
		c28.795,9.288,53.889,28.319,69.978,53.967c9.039,14.41,15.398,30.48,18.06,47.288c0.876,5.539,2.097,11.065,2.022,16.706
		C266.064,134.756,269.619,158.076,253.042,193.38z"/>
	<path fill-rule="evenodd" clip-rule="evenodd" fill="#82318E" d="M140.494,39.103c-1.625,0.396-5.756,1.409-7.874-2.708
		c-1.232-2.396,0.289-5.799,2.904-6.58c2.199-0.656,5.547,0.035,6.611,2.304c1.684,3.588-0.345,6.214-1.537,6.921"/>
	<path fill-rule="evenodd" clip-rule="evenodd" fill="#82318E" d="M207.914,48.838c-3.185,3.706-4.997,4.891-1.669,8.546
		c1.485,1.631,3.075,3.254,5.431,3.376c1.822-2.163,3.758-4.23,5.742-6.244c1.428-1.448,1.858-2.618,3.389-3.263
		c-0.25,2.738,4.262,1.126,1.343,3.814c-3.223,2.967-5.166,7.817-9.157,9.9c-2.794,1.458-6.312-1.75-8.286-3.409
		c-1.737-1.459-6.163-5.03-5.286-7.804c1.561-4.939,7.592-9.847,9.631-12.006c0.568-0.602,3.472-0.023,2.818,1.926
		C211.235,45.564,208.704,47.918,207.914,48.838z"/>
	<path fill-rule="evenodd" clip-rule="evenodd" fill="#82318E" d="M226.559,57.133c1.553,0.953,2.625,2.737,3.587,4.218
		c1.396,2.149,0.087,3.173-0.636,5.508c-0.674,2.179-4.313,9.008-3.45,11.162c3.352,0,8.294-5.777,10.631-7.881
		c0.463,0.997,2.8,2.311,2.377,3.628c-2.424,0.618-4.734,3.516-6.769,4.917c-2.263,1.558-4.734,2.99-6.706,4.905
		c-1.679,1.632-2.354-1.435-3.153-2.55c-2.616-3.655-1.666-3.878-0.035-8.084c0.822-2.12,3.49-6.966,2.655-9.319
		c-2.574,0-8.835,5.565-10.256,7.628c-2.414-1.732-2.951-2.835-0.563-4.365C218.65,64.075,222.76,60.733,226.559,57.133"/>
	<path fill-rule="evenodd" clip-rule="evenodd" fill="#82318E" d="M53.414,66.704c4.244,2.565,7.301,5.738,4.143,10.646
		c-1.246,1.938-5.585,9.099-8.477,8.552c-5.809-1.098-9.023-6.55-14.384-8.505c2.41-3.554,2.287-3.764,5.966-1.307
		c2.614,1.745,5.139,3.622,7.792,5.308c2.236-1.286,6.98-5.993,5.289-8.864c-1.02-1.73-3.995-3.687-6.087-4.823
		c-1.393-0.756-3.73-1.675-4.331-3.322c0.678-0.516,1.84-1.913,1.878-2.753"/>
	<g>
		<g>
			<path fill-rule="evenodd" clip-rule="evenodd" fill="#82318E" d="M69.653,48.907l-8.69-3.405
				c-2.979,3.883-5.113,2.904-3.463,8.283c0.903,2.944,1.918,5.853,2.978,8.743c0.534,1.458,0.891,6.333,2.485,6.988
				c2.237-1.978,4.014-2.597,2.673-5.671c-1.098-2.516,4.029-5.467,5.786-6.946c1.885-1.586,9.177,1.101,9.177-3.144
				C77.125,51.87,73.205,50.741,69.653,48.907z M63.588,58.258c0.409-2.774-1.992-7.833-2.125-7.833
				c0.171,0,2.462,0.962,4.709,1.954h0.042c-0.009,0.005-0.009,0.007-0.017,0.011c1.22,0.539,2.425,1.085,3.269,1.489
				C67.969,55.221,65.727,58.064,63.588,58.258z"/>
		</g>
	</g>
	<path fill-rule="evenodd" clip-rule="evenodd" fill="#82318E" d="M240.319,77.02c5.907,2.253-0.787,5.38-2.876,6.503
		c-2.939,1.582-11.741,8.893-12.258,2.127C229.417,84.152,237.658,80.724,240.319,77.02"/>
	<path fill-rule="evenodd" clip-rule="evenodd" fill="#82318E" d="M244.447,83.523c8.659,4.682-9.646,12.226-8.131,15.386
		c3.855-0.359,10.527-0.843,14.227,0.293c1.152,0.354,3.127,4.222,2.284,5.084c-2.611-1.147-6.223-0.594-8.987-0.6
		c-2.288-0.005-4.651-0.87-6.855-0.809c-3.705,0.103-3.852,0.17-4.783-2.69c-0.406-0.916-0.785-1.842-1.138-2.78
		c1.786-1.366,3.227-3.115,4.699-4.793C238.519,89.472,241.96,86.895,244.447,83.523"/>
	<path fill-rule="evenodd" clip-rule="evenodd" fill="#82318E" d="M48.205,90.654c0.158,6.082-3.086,3.292-6.672,2.367
		c-3.026-0.781-4.491,5.834-5.367,8.317c-0.867,2.459,1.22,2.305,3.49,2.935c3.675,1.02,3.101,2.331,1.543,5.39
		c-3.631-0.604-8.044-2.863-11.417-4.383c-1.322-0.596-6.215-1.515-6.469-2.745c2.051-1.682-0.24-4.675,3.465-3.031
		c1.272,0.565,4.927,2.891,5.702,1.074c0.731-1.714,1.514-3.406,2.199-5.141c0.543-1.375,1.468-3.248,1.267-4.785
		c-2.479-0.049-4.772-1.478-7.004-2.377c0.581-1.043,1.659-2.591,1.126-3.878C36.417,84.424,41.883,90.193,48.205,90.654
		C48.24,92.025,45.892,90.485,48.205,90.654z"/>
	<path fill-rule="evenodd" clip-rule="evenodd" fill="#82318E" d="M253.575,107.538c2.16,2.536,1.375,7.782,1.854,10.867
		c0.225,1.449,1.1,2.746,1.142,4.132c0.08,2.665-3.552,3.138-3.998-0.042c-0.337-2.396-0.909-4.735-1.499-7.078
		c-0.026-0.972-0.151-1.931-0.374-2.877c-2.64-0.061-3.623,0.039-3.167,2.591c0.428,2.386,1.336,7.263,1.607,8.657
		c0.33,2.043-2.088,1.068-3.444,1.385c0.027-2.464-0.353-4.948-0.874-7.349c-0.93-4.276-0.659-3.693-4.503-3.531
		c0.469,3.628,1.632,7.145,2.095,10.779c0.246,1.939-0.854,1.921-2.688,1.993c-1.932,0.075-1.635-5.643-1.954-7.393
		c-0.446-2.445-0.996-4.878-1.673-7.271c-0.831-2.934,3.083-2.027,5.333-2.473C244.969,109.227,250.584,109.794,253.575,107.538"/>
	<path fill-rule="evenodd" clip-rule="evenodd" fill="#82318E" d="M32.444,116.418c0.053,0.631-0.116,6.088-1.125,5.753
		c-4.538,1.218-2.657-4.796-2.344-7.479c0.521-4.453,4.625-3.462,8.133-1.96c3.398,1.455,2.59,3.634,2.488,6.699
		c-0.134,4.042-0.568,13.263-6.499,12.506c-5.068-0.646-13.729-0.167-13.099-7.257c0.295-3.321,0.046-11.863,3.704-13.066
		c8.452-2.78,1.688,4.583,1.304,6.99c-0.846,5.304-1.313,8.67,5.305,8.62c3.187-0.024,4.061,0.003,4.55-3.046
		C35.459,120.455,37.055,116.877,32.444,116.418C32.504,117.123,33.279,116.501,32.444,116.418z"/>
	<path fill-rule="evenodd" clip-rule="evenodd" fill="#82318E" d="M19.062,141.934c-0.023-3.431-1.935-4.242,2.269-4.611
		c3.526-0.31,7.052-0.618,10.578-0.928c5.586-0.49,7.287-0.007,6.37,6.356c-0.373,2.589-13.407,9.069-12.213,11.314
		c2.857-0.203,5.696-0.561,8.54-0.899c4.914-0.584,4.632-0.947,5.219,3.901c-1.299,1.284-9.589,0.854-11.346,1.03
		c-2.558,0.258-5.112,0.543-7.665,0.846c-0.631-1.284-0.592-4.766-0.651-6.327c-0.16-4.257,12.349-7.327,12.908-11.559
		C30.624,139.614,22.261,141.954,19.062,141.934"/>
	<path fill-rule="evenodd" clip-rule="evenodd" fill="#82318E" d="M171.325,87.26c-0.863-3.078-0.685-7.607-4.497-7.628
		c-3.896-0.022-8.399,0.403-12.311,0.389c-17.94-0.065-48.607-0.481-48.974,1.254c-2.57,12.146-7.272,24.973-11.275,36.549
		c-2.261,6.538-4.439,12.072,0.791,17.725c4.01,4.335,11.648,7.375,17.486,5.608c3.961-1.199,7.233-4.523,9.396-7.948
		c3.022-4.786,0.871-8.25-0.886-13.394c-2.045-5.987-10.688-33.398-10.688-35.667c8.646-0.775,17.835-0.012,26.515,0
		c0.898,1.69-2.144,6.016-2.669,7.624c-0.647,1.982-0.119,20.937-0.154,24.187c-0.073,6.767,0.282,13.958,0.087,20.452
		c-0.019,0.62-2.914,0.286-3.346,0.28c-3.38-0.039-3.306,2.015-3.172,4.117c0.7,1.48,3.357,1.252,5.879,1.125
		c0.071,1.48,0.069,3.454,0.193,4.865c0.294,3.354-0.7,1.948-2.105,4.488c-1.147,2.074-0.642,2.919-0.339,3.403
		c1.114,1.516,2.22,2.061,3.573,2.065c1.295,0.005,3.653,0.591,5.458,0.183c2.435-0.551,5.25-1.355,4.648-4.594
		c-0.246-1.328-1.435-2.924-2.799-3.282c-0.241-1.717-0.175-3.492-0.204-5.22c-0.073-4.439,6.994,1.366,5.813-5.143
		c-0.89-4.903-6.042,0.786-6.277-4.156c-0.355-7.466,0.204-15.093,0.056-22.582c-0.15-7.606,0.139-13.006-0.144-19.961
		c-0.07-1.742-5.183-8.036-0.753-7.837c4.368,0.196,14.637-0.083,18.105-0.071c2.695,0.01,6.901-1.593,5.405,2.057
		c-2.708,6.611-9.234,30.433-10.646,35.849c-0.826,3.168-2.475,6.728-0.726,9.929c2.166,3.966,4.097,6.557,7.979,8.182
		c6.69,2.801,14.818,0.899,19.601-4.397c1.426-1.58,2.586-3.802,3.253-6.099C184.471,126.605,172.274,90.645,171.325,87.26z
		 M120.998,127.3c-3.183,2.061-20.656,1.196-23.087,1.073c-4.743-0.24-3.694-1.732-2.816-5.204
		c3.285-12.983,8.245-25.337,12.146-38.146C109.366,85.024,120.032,125.25,120.998,127.3z M154.894,127.425
		c0-3.138,2.137-7.352,2.996-10.394c1.196-4.228,8.811-30.963,9.572-32.043c0.656,2.656,13.527,39.216,13.979,41.122
		C182.084,128.821,162.317,127.354,154.894,127.425z"/>
	<g>
		<g>
			<path fill-rule="evenodd" clip-rule="evenodd" fill="#82318E" d="M247.699,132.179
				C247.525,132.418,250.511,132.146,247.699,132.179L247.699,132.179z M256.955,128.051c-5.349,0.005-10.696-0.006-16.045-0.002
				c-3.186,0.002-1.538,1.583-2.092,4.13c0.611,0.611,3.912,0.046,4.753,0c0.534,2.924,0.173,6.332-0.249,9.254
				c-1.27,0.772-2.822,0.784-4.254,0.751c-0.596,1.277,0.385,2.917-0.25,4.252c1.515,0.521,6.282,0.028,6.504-2.125
				c3.593,1.653,10.151,5.051,11.367-1.438C257.596,138.026,257.026,132.945,256.955,128.051z M249.119,142.021
				c-1.88-0.26-2.429-8.454-1.42-9.842c1.838-0.021,3.559-0.053,5.378,0.249C251.831,136.352,254.846,142.813,249.119,142.021z"/>
		</g>
	</g>
	<path fill-rule="evenodd" clip-rule="evenodd" fill="#82318E" d="M243.571,152.691c-3.721-0.026-5.461,9.722-0.877,10.254
		c1.614-3.267,0.749-12.947,5.421-13.575c1.761-0.236,5.153,0.001,6.518,1.28c2.078,1.951,0.992,3.78,0.751,6.473
		c-0.512,5.693-0.639,12.189-7.685,10.451c0-0.627,0.49-1.958,0.534-2.563c0.176-2.402,0.556-0.239,1.841-1.689
		c1.87-1.279,1.845-6.326,1.894-8.321c0.038-1.587-2.545-1.464-2.962-0.016c-0.759,2.638-1.517,5.276-2.271,7.915
		c-0.464,1.622-0.483,3.096-1.789,3.875c-1.434,0.854-3.921,0.108-5.354-0.374c-3.168-1.066-3.593-1.977-3.398-5.128
		c0.215-3.495,0.77-7.163,2.002-10.457c0.832-2.236,1.328-2.375,3.688-2.503C245.801,148.101,244.25,149.476,243.571,152.691"/>
	<path fill-rule="evenodd" clip-rule="evenodd" fill="#82318E" d="M40.701,161.196c1.461,0.466,0.748,2.935,1.75,4.001
		c-0.541,1.038-4.09,1.227-4.99,1.42c-3.082,0.664-6.093,1.438-9.035,2.577c-1.259,0.486-2.839,1.195-4.235,1.008
		c-0.146-0.608-0.356-3.968-1.25-3.379C24.632,163.001,37.147,164.153,40.701,161.196C41.276,161.379,38.795,162.782,40.701,161.196
		z"/>
	<path fill-rule="evenodd" clip-rule="evenodd" fill="#82318E" d="M233.44,171.951c-0.105-6.541,4.948-3.302,8.686-1.658
		c1.604,0.704,8.697,1.795,9.449,3.159c0.737,0.727-0.267,2.005-0.489,2.579c-1.038,2.671-3.759,0.234-5.899-0.332
		C241.081,174.612,237.927,172.138,233.44,171.951"/>
	<path fill-rule="evenodd" clip-rule="evenodd" fill="#82318E" d="M41.575,170.576c4.002,0.851,5.275,6.038,6.792,9.366
		c2.027,4.446,2.425,7.103-2.289,9.771c-0.682-2.639-2.726-3.137-0.375-5.379c-0.015-2.996-2.353-5.933-3.949-8.291
		c-1.817-2.685-3.024,1.07-2.325,2.951c0.97,2.608,2.093,5.192,3.378,7.661c2.508,4.821-6.356,9.497-9.247,5.348
		c-3.407-4.89-9.268-13.323-1.865-16.673c2.064,4.129,0.371,6.398,2.715,11.125c0.626,1.263,1.539,3.008,3.223,2.135
		c2.312-1.199,0.399-3.003-0.06-4.757c-0.47,0-3.322-6.395-3.423-7.563C33.743,171.595,39.141,172.549,41.575,170.576
		C42.489,170.77,40.075,171.792,41.575,170.576z"/>
	<path fill-rule="evenodd" clip-rule="evenodd" fill="#82318E" d="M239.916,182.838c5.786,2.166,3.239-5.511,7.61-3.613
		c2.396,1.04,1.588,1.764,0.388,4.268c-0.998,2.082-2.182,4.067-3.187,6.145c-1.358,2.811-3.082,8.483-6.785,4.203
		c1.956-2.935,5.376-5.498,1.29-6.962c-2.536-0.908-4.938-2.206-7.334-3.424c-3.66-1.86-3.795-1.107-1.586-5.25"/>
	<path fill-rule="evenodd" clip-rule="evenodd" fill="#82318E" d="M225.561,198.218c1.858-0.371,4.024-0.138,5.88,0.114
		c3.135,0.427,6.096,0.076,9.253,0.01c0,4.924-5.887,4.113-9.198,4.089c-2.79-0.021-3.792-0.406-2.652,2.602
		c1.744,4.603,3.135,6.768-0.907,10.446c-1.104-0.76-2.465-8.767-2.948-10.709c-0.539-2.16-1.084-3.734-3.041-4.979
		c-3.638-2.313-3.787-1.849-0.89-5.2"/>
	<path fill-rule="evenodd" clip-rule="evenodd" fill="#82318E" d="M57.085,195.841c1.815,0,3.491,2.64,1.902,4.001
		c-1.864,1.599-3.883,3.026-5.878,4.455c-4.454,3.188-5.505,3.406-1.119,7.849c1.498,1.517-1.615,3.439-3.036,3.206
		c-0.631-2.521-2.759-4.712-4.393-6.627c-1.497-1.754-2.834-4.167-4.576-5.657c-2.484-2.126-0.46-3.207,1.713-4.476
		c0,2.769,3.664,6.178,6.043,4.551C50.982,200.927,54.483,198.833,57.085,195.841C57.209,195.841,54.275,199.073,57.085,195.841z"/>
	<path fill-rule="evenodd" clip-rule="evenodd" fill="#82318E" d="M218.68,226.484c-5.217-7.911-5.137-17.071-8.38-25.391
		c-2.74-6.987-4.175-16.157-4.467-23.533c-0.49-12.385-7.102-59.199-7.331-70.104c-0.253-12.026-1.919-24.015-3.574-35.927
		c-0.93-6.686-1.702-13.055-5.126-18.963c-3.767-6.501-9.482-10.544-15.556-13.693c-2.401-1.246-4.491-2.165-7.114-2.496
		c-3.227-0.406-2.189-4.68-3.608-6.76c-2.257-3.298-6.117-5.664-10.041-6.326c-4.154-0.701-4.807-6.182-8.693-8.348
		c-6.037-3.364-11.872-1.697-17.156,2.033c-1.584,1.118-2.677,5.649-4.682,6.366c-2.071,0.74-4.557,0.376-6.583,1.522
		c-3.333,2.009-4.039,2.954-5.208,5.044c-0.881,1.575-0.882,4.897-1.92,6.088c-0.975,1.466-4.92,1.548-6.541,1.96
		c-3.26,0.827-6.591,3.239-9.236,5.249c-4.005,3.042-7.778,6.589-9.785,11.297c-2.487,5.834-7.724,60.806-7.791,63.265
		c-0.273,10.095-2.222,20.943-2.921,31.323c-1.057,15.687-3.851,31.044-5.544,46.617c-0.64,5.881-2.73,11.847-4.182,17.595
		c-0.874,3.459-2.229,6.76-3.972,9.87c-1.003,1.789-5.437,7.316-5.437,8.94c2.527,1.225,7.118-0.447,9.676-1.292
		c4.708-1.555,9.878-1.805,14.34-4.087c3.093,0.296,5.242,3.073,7.959,4.176c2.863,1.163,6.371,1.509,9.431,1.493
		c1.717-0.009,5.618-1.104,6.248,1.461c-1.912,2.232,2.319,5.65,3.907,7.059c3.389,3.004,8.282,4.558,12.771,4.447
		c1.566-0.038,3.648-1.279,4.777,0.085c1.943,2.347,6.987,13.036,10.61,16.365c5.284,4.855,9.754-0.044,13.092-4.269
		c1.45-1.835,6.984-12.715,8.465-12.73c7.469-0.079,11.462-0.065,17.559-5.245c2.243-1.906,2.775-3.925,4.114-6.837
		c0.483-1.783,5.084-0.194,6.233-0.185c2.707,0.022,6.392-1.356,8.884-2.342c2.062-0.815,4.43-3.882,6.771-3.563
		c4.272,0.583,9.267,2.536,13.451,3.785c3.32,0.992,6.701,1.723,10.187,1.678C223.219,231.221,219.187,227.251,218.68,226.484
		C216.831,223.679,219.755,228.112,218.68,226.484z M118.379,33.096c1.986-3.113,5.554-3.664,8.998-3.604
		c0.876-3.841,3.796-8.001,7.567-9.066c8.737-2.468,12.237,7.594,13.237,8.594c0.72,0.719,8.878,2.888,9.999,7.2
		c0.5,1.922,0.508,3.952,0.216,5.906c1.057,1.202,3.434,0.242,4.915,0.562c3.332,0.72,9.473,1.99,11.594,4.815
		c-1.724,1.808-74.143,1.413-74.794,0.126c2.686-3.49,11.739-6.077,15.759-4.628 M176.064,51.569
		c2.97-0.011,5.834-0.903,6.585,3.334c0.153,0.87-27.58,0.979-31.066,0.987C131.8,55.94,112.01,56.229,92.23,55.883
		c-0.368-1.455,0.371-3.75,1.627-3.627C95.911,52.457,174.167,51.577,176.064,51.569z M85.623,88.9
		c0.452-5.406,3.453-23.964,5.107-27.64c2.12-0.639,84.99-0.117,87.4-0.155c4.703-0.074,5.851-0.905,7.455,3.913
		c3.661,10.99,4.335,24.113,5.079,35.815c1.35,21.2,4.677,42.212,5.752,63.364c-19.586,0-39.233,0.604-58.838,0.347
		c-10.915-0.143-21.866-0.231-32.669-0.018c-8.263,0.164-17.299,0.425-25.561-0.329C81.976,152.839,85.019,96.12,85.623,88.9z
		 M77.452,178.041c0.25-2.441,0.458-9.554,3.183-9.397c2.368,0.136,98.12-0.355,100.59-0.473c2.174-0.103,15.652-0.902,15.56,1.821
		c-0.105,3.079,3.232,20.795,4.006,26.157c0.328,2.87-10.05,1.837-14.295,1.846c-37.134,0.074-74.267,0.148-111.4,0.224
		C75.211,197.253,77.242,180.091,77.452,178.041z M125.251,248.497 M206.798,220.856c-3.667-1.669-7.336-3.336-11.004-5.003
		c-1.861,0.07-4.708,3.818-6.772,4.666c-6.457,2.651-14.408,1.457-20.997-0.413c-0.613,0.606,0.019,7.564-0.707,9.337
		c-1.18,2.882-3.801,6.063-7.122,6.396c-2.907,0.292-5.956-0.595-8.766-1.227c-3.212-0.723-3.667,2.877-3.667,2.877
		s-0.119,1.611-1.278,3.988c-1.161,2.382-2.768,4.879-3.929,7.26c-0.406,0.813-2.333,7.198-6.926,0.885
		c-1.725-2.376-7.611-16.19-9.806-14.924c-7.506,4.326-16.112-0.169-16.956-7.833c-0.791-4.747,1.626-7.173-3.578-5.948
		c-4.95,1.166-10.757,1.914-15.754,0.617c-3.657-0.95-6.977-6.229-10.272-4.837c-2.654,1.12-7.214,4.509-10.049,4.158
		c0.541-2.319,4.457-17.585,6.292-17.793c7.09-0.803,14.957,0.107,22.09,0.053c14.22-0.108,28.566-0.711,42.635-0.537
		c15.698,0.195,31.442,0.391,47.232,0.391c4.332,0,8.71-0.234,13.038-0.093C202.33,202.937,206.796,220.857,206.798,220.856
		C203.131,219.187,206.966,220.73,206.798,220.856z"/>
	<g>
		<rect x="88.494" y="168.295" fill-rule="evenodd" clip-rule="evenodd" fill="none" width="103.25" height="37"/>
		<path fill="#7B2F86" stroke="#7B2F86" stroke-width="0.75" stroke-miterlimit="10" d="M92.765,189.178
			c1.019-1.3,2.021-2.659,3.006-4.084c0.351,0.557,0.844,0.99,1.477,1.3c-0.633,0.742-1.442,1.842-2.426,3.295
			c-0.985,1.454-1.898,2.83-2.742,4.13c-0.563-0.496-1.336-0.96-2.32-1.393C90.743,191.559,91.745,190.478,92.765,189.178z
			 M96.087,181.661c-0.633,0.371-1.196,0.867-1.688,1.484c-1.336-1.051-2.813-2.041-4.43-2.97c0.491-0.371,0.949-0.835,1.371-1.392
			C92.818,179.588,94.4,180.546,96.087,181.661z M97.353,176.184c-0.563,0.372-1.091,0.867-1.582,1.485
			c-1.336-1.113-2.742-2.103-4.219-2.97c0.491-0.433,0.949-0.896,1.371-1.393C94.329,174.112,95.806,175.071,97.353,176.184z
			 M112.224,193.819c-0.493-0.805-0.915-1.424-1.266-1.856c-2.251,0.123-4.693,0.293-7.33,0.511
			c-2.637,0.216-4.413,0.448-5.326,0.696c-0.211-0.743-0.493-1.393-0.844-1.949c0.913-0.247,1.898-1.052,2.953-2.413
			c1.055-1.36,2.004-3.063,2.848-5.104h-2.953c-1.266,0-2.462,0.031-3.586,0.093v-1.671c1.124,0.063,2.355,0.093,3.691,0.093h3.797
			v-4.084h-2.426c-1.336,0-2.497,0.032-3.48,0.093v-1.67c1.124,0.062,2.25,0.093,3.375,0.093h2.531c0-1.731-0.036-3.156-0.105-4.27
			h2.32c-0.071,0.928-0.105,2.352-0.105,4.27h3.164c1.055,0,2.144-0.031,3.27-0.093v1.67c-1.125-0.061-2.146-0.093-3.059-0.093
			h-3.375v4.084h3.797c1.266,0,2.531-0.03,3.797-0.093v1.671c-1.266-0.062-2.531-0.093-3.797-0.093h-5.379l1.055,0.557
			c-0.422,0.434-1.091,1.361-2.004,2.784c-0.915,1.424-1.935,2.784-3.059,4.084c3.093-0.123,6.152-0.278,9.176-0.464
			c-0.844-1.114-1.724-2.104-2.637-2.971c0.562-0.371,1.089-0.772,1.582-1.206c1.266,1.361,3.022,3.403,5.273,6.125
			C113.49,192.921,112.857,193.323,112.224,193.819z"/>
		<path fill="#7B2F86" stroke="#7B2F86" stroke-width="0.75" stroke-miterlimit="10" d="M142.945,181.568v1.949
			c-0.985,0.186-1.882,0.479-2.689,0.881c-0.81,0.403-1.74,0.821-2.795,1.253v0.836h6.645c0.844,0,1.933-0.03,3.27-0.093v1.856
			c-1.407-0.062-2.497-0.093-3.27-0.093h-6.645v3.805c0,0.866-0.388,1.407-1.16,1.624c-0.774,0.217-2.04,0.386-3.797,0.511
			c-0.211-0.682-0.563-1.361-1.055-2.042h2.848c0.702,0,1.055-0.341,1.055-1.021v-2.877h-7.277c-1.125,0-2.391,0.031-3.797,0.093
			v-1.856c1.477,0.063,2.706,0.093,3.691,0.093h7.383c0-0.495-0.071-1.052-0.211-1.671l3.797-1.671h-5.801
			c-1.336,0-2.848,0.032-4.535,0.093v-1.763c1.546,0.063,3.022,0.093,4.43,0.093H142.945z M141.363,177.391h5.801
			c-0.071,0.557-0.105,1.206-0.105,1.949c0,0.742,0.034,1.454,0.105,2.135h-2.215v-2.506h-18.246v2.599h-2.215
			c0.069-0.743,0.105-1.485,0.105-2.228c0-0.743-0.036-1.393-0.105-1.949h14.66c0.562-0.866,1.142-1.778,1.74-2.738
			c0.597-0.958,1.071-1.902,1.424-2.83c1.124,0.557,2.004,0.96,2.637,1.206C143.542,174.453,142.346,175.906,141.363,177.391z
			 M130.921,175.627c-0.774,0.496-1.371,0.96-1.793,1.393c-0.915-1.175-1.969-2.196-3.164-3.063
			c0.773-0.494,1.335-0.896,1.688-1.206C128.917,173.678,130.007,174.638,130.921,175.627z M137.46,175.349
			c-0.633,0.434-1.302,0.835-2.004,1.207c-0.563-0.989-1.407-2.104-2.531-3.342c0.702-0.432,1.335-0.804,1.898-1.113
			C136.159,173.585,137.039,174.669,137.46,175.349z"/>
		<path fill="#7B2F86" stroke="#7B2F86" stroke-width="0.75" stroke-miterlimit="10" d="M164.806,177.02
			c-0.422,1.238-0.88,2.476-1.371,3.712c1.335,1.485,2.179,2.646,2.531,3.48c0.351,0.836,0.422,1.656,0.211,2.46
			c-0.211,0.805-0.669,1.424-1.371,1.856c-0.704,0.434-1.653,0.649-2.848,0.649c0-0.68-0.142-1.393-0.422-2.135
			c1.335,0.186,2.126,0.063,2.373-0.371c0.245-0.433,0.316-0.959,0.211-1.578c-0.105-0.617-0.405-1.253-0.896-1.902
			c-0.493-0.649-1.091-1.346-1.793-2.088c0.28-0.804,0.614-1.718,1.002-2.738c0.386-1.021,0.686-2.026,0.896-3.017h-2.953v18.563
			h-2.004c0.069-1.176,0.105-2.599,0.105-4.27v-11.787c0-1.36-0.036-2.629-0.105-3.806h7.594
			C165.614,174.792,165.228,175.783,164.806,177.02z M177.146,183.331c1.266,0,2.426-0.03,3.48-0.093v1.578
			c-1.055-0.061-1.793-0.093-2.215-0.093h-1.793v5.848c0,0.742,0.298,1.128,0.896,1.16c0.597,0.03,1.107,0.03,1.529,0
			c0.422-0.032,0.72-0.202,0.896-0.511c0.175-0.309,0.298-0.929,0.369-1.856c0.633,0.371,1.3,0.649,2.004,0.835
			c-0.353,1.608-0.862,2.537-1.529,2.785c-0.669,0.246-1.864,0.339-3.586,0.278c-1.724-0.063-2.55-0.867-2.479-2.413v-6.126h-2.426
			c0.069,1.548-0.105,2.986-0.527,4.315c-0.422,1.332-1.16,2.383-2.215,3.156c-1.055,0.772-2.181,1.346-3.375,1.717
			c-0.282-0.496-0.81-0.96-1.582-1.393c2.953-0.805,4.675-1.902,5.168-3.294c0.491-1.393,0.702-2.893,0.633-4.502
			c-1.618,0-2.778,0.032-3.48,0.093v-1.578c0.913,0.063,2.004,0.093,3.27,0.093H177.146z M181.365,176.927
			c0,0.557,0.034,1.146,0.105,1.763h-2.109v-2.134h-10.547v2.041h-2.109c0.069-0.557,0.105-1.081,0.105-1.577
			c0-0.495-0.036-1.082-0.105-1.764h14.766C181.399,175.813,181.365,176.37,181.365,176.927z M175.564,179.619
			c1.477,0,2.637-0.03,3.48-0.093v1.578c-0.915-0.062-2.075-0.094-3.48-0.094h-3.059c-1.548,0-2.813,0.032-3.797,0.094v-1.578
			c0.913,0.063,2.144,0.093,3.691,0.093H175.564z M173.666,175.164c-0.353-0.681-0.985-1.485-1.898-2.413
			c0.633-0.247,1.16-0.557,1.582-0.928c1.124,1.299,1.827,2.134,2.109,2.506C174.826,174.514,174.227,174.792,173.666,175.164z"/>
	</g>
</g>
</svg>
